<svg width="24" height="24" viewBox="0 0 24 24" fill="none" xmlns="http://www.w3.org/2000/svg">
<path d="M15.6803 13.9737L20.2363 19.2892C20.4624 19.5527 20.6082 19.8756 20.6563 20.2194C20.7044 20.5633 20.6528 20.9138 20.5077 21.2292C20.3626 21.5447 20.1301 21.8119 19.8377 21.9992C19.5453 22.1864 19.2053 22.2859 18.858 22.2857H4.96946C4.62228 22.2858 4.28236 22.1863 3.99004 21.999C3.69772 21.8116 3.46525 21.5444 3.32023 21.229C3.1752 20.9135 3.12369 20.5631 3.17182 20.2193C3.21994 19.8755 3.36568 19.5526 3.59175 19.2892L8.14832 13.9737C8.68546 14.2994 9.26717 14.5583 9.88375 14.7377L4.96946 20.4709H18.858L13.9437 14.7377C14.5535 14.5605 15.1372 14.3036 15.6797 13.9737H15.6803ZM11.9135 1.71429C15.2552 1.71429 17.9637 4.42287 17.9637 7.76458C17.9637 11.1063 15.2552 13.8149 11.9135 13.8149C8.57175 13.8149 5.86317 11.1063 5.86317 7.76458C5.86317 4.42344 8.57175 1.71429 11.914 1.71429H11.9135ZM11.9135 3.52915C11.3573 3.52915 10.8065 3.6387 10.2926 3.85155C9.77877 4.0644 9.31186 4.37638 8.91856 4.76968C8.52526 5.16298 8.21328 5.62989 8.00043 6.14375C7.78758 6.65762 7.67803 7.20838 7.67803 7.76458C7.67803 8.32079 7.78758 8.87154 8.00043 9.38541C8.21328 9.89927 8.52526 10.3662 8.91856 10.7595C9.31186 11.1528 9.77877 11.4648 10.2926 11.6776C10.8065 11.8905 11.3573 12 11.9135 12C13.0368 12 14.1141 11.5538 14.9084 10.7595C15.7027 9.96518 16.1489 8.88789 16.1489 7.76458C16.1489 6.64127 15.7027 5.56398 14.9084 4.76968C14.1141 3.97538 13.0368 3.52915 11.9135 3.52915Z" fill="#1A1A1A"/>
</svg>
