<svg width="29" height="29" viewBox="0 0 29 29" fill="none" xmlns="http://www.w3.org/2000/svg">
<path fill-rule="evenodd" clip-rule="evenodd" d="M25 4H9V20H25V4ZM9 2C7.89543 2 7 2.89543 7 4V20C7 21.1046 7.89543 22 9 22H25C26.1046 22 27 21.1046 27 20V4C27 2.89543 26.1046 2 25 2H9Z" fill="white"/>
<path fill-rule="evenodd" clip-rule="evenodd" d="M5 9C4.44772 9 4 9.44772 4 10V24C4 24.5523 4.44772 25 5 25H19C19.5523 25 20 24.5523 20 24V21.05H22V24C22 25.6569 20.6569 27 19 27H5C3.34315 27 2 25.6569 2 24V10C2 8.34315 3.34315 7 5 7H7.95V9H5Z" fill="white"/>
</svg>
