<svg width="24" height="24" viewBox="0 0 24 24" fill="none" xmlns="http://www.w3.org/2000/svg">
<path d="M2.2905 2.57141C2.8803 2.57142 3.45216 2.77417 3.91023 3.14569C4.36831 3.5172 4.68474 4.0349 4.8065 4.61198L5.16022 6.2857H5.16593L6.3145 11.7857L7.18479 16H17.9585L19.6099 7.99998H6.69165L6.33336 6.2857H19.6105C19.8651 6.28569 20.1164 6.34238 20.3463 6.45163C20.5762 6.56089 20.7789 6.71998 20.9397 6.91734C21.1005 7.11471 21.2152 7.3454 21.2757 7.59266C21.3362 7.83992 21.3409 8.09755 21.2894 8.34684L19.6379 16.3468C19.5581 16.7332 19.3474 17.0802 19.0415 17.3293C18.7355 17.5785 18.353 17.7144 17.9585 17.7143H7.18479C6.79035 17.7143 6.40798 17.5783 6.10215 17.3292C5.79631 17.0801 5.58574 16.7331 5.50593 16.3468L3.88308 8.48741L3.87222 8.4897L3.12936 4.9657C3.08873 4.77334 2.98321 4.60079 2.83048 4.47699C2.67775 4.35318 2.48711 4.28565 2.2905 4.2857H0.824219V2.57141H2.2905ZM16.5716 10.8571V12.5714H8.57165V10.8571H16.5716ZM7.14307 21.7143C7.33069 21.7143 7.51648 21.6774 7.68982 21.6056C7.86317 21.5338 8.02067 21.4286 8.15335 21.2959C8.28602 21.1633 8.39127 21.0058 8.46307 20.8324C8.53487 20.6591 8.57183 20.4733 8.57183 20.2857C8.57183 20.0981 8.53487 19.9123 8.46307 19.739C8.39127 19.5656 8.28602 19.4081 8.15335 19.2755C8.02067 19.1428 7.86317 19.0376 7.68982 18.9658C7.51648 18.894 7.33069 18.8571 7.14307 18.8571C6.76423 18.8572 6.40091 19.0077 6.13304 19.2756C5.86517 19.5435 5.71469 19.9068 5.71469 20.2857C5.71469 20.6645 5.86517 21.0279 6.13304 21.2958C6.40091 21.5637 6.76423 21.7142 7.14307 21.7143ZM17.4288 21.7143C17.6164 21.7143 17.8022 21.6774 17.9755 21.6056C18.1489 21.5338 18.3064 21.4286 18.4391 21.2959C18.5717 21.1633 18.677 21.0058 18.7488 20.8324C18.8206 20.6591 18.8575 20.4733 18.8575 20.2857C18.8575 20.0981 18.8206 19.9123 18.7488 19.739C18.677 19.5656 18.5717 19.4081 18.4391 19.2755C18.3064 19.1428 18.1489 19.0376 17.9755 18.9658C17.8022 18.894 17.6164 18.8571 17.4288 18.8571C17.0499 18.8572 16.6866 19.0077 16.4188 19.2756C16.1509 19.5435 16.0004 19.9068 16.0004 20.2857C16.0004 20.6645 16.1509 21.0279 16.4188 21.2958C16.6866 21.5637 17.0499 21.7142 17.4288 21.7143Z" fill="#1A1A1A"/>
</svg>
