<svg width="40" height="40" viewBox="0 0 40 40" fill="none" xmlns="http://www.w3.org/2000/svg">
<path d="M34.1666 7.08301H5.83329C4.24996 7.08301 2.91663 8.41634 2.91663 9.99968V29.9997C2.91663 31.583 4.24996 32.9163 5.83329 32.9163H34.1666C35.75 32.9163 37.0833 31.583 37.0833 29.9997V9.99968C37.0833 8.41634 35.75 7.08301 34.1666 7.08301ZM5.83329 9.58301H34.1666C34.4166 9.58301 34.5833 9.74968 34.5833 9.99968V10.9997L20 20.1663L5.41663 10.9997V9.99968C5.41663 9.74968 5.58329 9.58301 5.83329 9.58301ZM34.1666 30.4163H5.83329C5.58329 30.4163 5.41663 30.2497 5.41663 29.9997V13.9163L19.3333 22.6663C19.5 22.833 19.75 22.833 20 22.833C20.25 22.833 20.5 22.7497 20.6666 22.6663L34.5833 13.9163V29.9997C34.5833 30.2497 34.4166 30.4163 34.1666 30.4163Z" fill="#1A1A1A"/>
</svg>
