<svg width="24" height="24" viewBox="0 0 24 24" fill="none" xmlns="http://www.w3.org/2000/svg">
<path d="M17.9326 2.85693C18.2509 2.85694 18.5629 2.94558 18.8337 3.11292C19.1045 3.28025 19.3233 3.51967 19.4657 3.80436L20.9617 6.79579C21.0808 7.03388 21.1428 7.29643 21.1429 7.56265V13.1426H19.4286V8.57122H4.57143V19.4284H13.1429V21.1426H4.57143C4.34631 21.1426 4.12339 21.0983 3.9154 21.0122C3.70742 20.926 3.51844 20.7997 3.35925 20.6405C3.20006 20.4814 3.07379 20.2924 2.98764 20.0844C2.90149 19.8764 2.85715 19.6535 2.85715 19.4284V7.70208C2.8572 7.44381 2.91561 7.18889 3.028 6.95636L4.54058 3.82493C4.68086 3.53483 4.90006 3.29014 5.17305 3.11893C5.44605 2.94772 5.76177 2.85691 6.084 2.85693H17.9326ZM17.0286 14.2855C17.511 14.2854 17.985 14.4126 18.4026 14.6542C18.8202 14.8958 19.1667 15.2433 19.4072 15.6616C19.6476 16.0799 19.7734 16.5542 19.772 17.0366C19.7705 17.5191 19.6418 17.9927 19.3989 18.4095L21.0446 20.0552L20.0749 21.0249L18.4337 19.3844C18.071 19.6006 17.6632 19.7302 17.2422 19.7629C16.8211 19.7957 16.3982 19.7308 16.0064 19.5733C15.6145 19.4159 15.2643 19.17 14.9831 18.855C14.7019 18.5399 14.4972 18.1642 14.385 17.7571C14.2728 17.3499 14.2561 16.9224 14.3363 16.5078C14.4164 16.0931 14.5912 15.7026 14.8471 15.3666C15.1029 15.0306 15.4329 14.7583 15.8113 14.5708C16.1897 14.3832 16.6063 14.2856 17.0286 14.2855ZM17.0286 15.9998C16.7558 15.9998 16.4942 16.1082 16.3013 16.3011C16.1084 16.4939 16 16.7556 16 17.0284C16 17.3012 16.1084 17.5628 16.3013 17.7557C16.4942 17.9486 16.7558 18.0569 17.0286 18.0569C17.3014 18.0569 17.563 17.9486 17.7559 17.7557C17.9488 17.5628 18.0571 17.3012 18.0571 17.0284C18.0571 16.7556 17.9488 16.4939 17.7559 16.3011C17.563 16.1082 17.3014 15.9998 17.0286 15.9998ZM10.8571 10.2855V11.9998H6.28572V10.2855H10.8571ZM6.084 4.57122L4.97943 6.85693H19.076L17.9326 4.57122H6.084Z" fill="#BC8700"/>
</svg>
