<svg width="24" height="24" viewBox="0 0 24 24" fill="none" xmlns="http://www.w3.org/2000/svg">
<path d="M16.7274 16.9526C16.7606 16.9526 16.7932 16.9537 16.8257 16.9554L16.7274 16.9526C16.8496 16.9525 16.9712 16.9675 17.0897 16.9971L17.1189 17.0051C17.4068 17.0839 17.6636 17.2491 17.8549 17.4783C18.0119 17.6661 18.1199 17.8899 18.1692 18.1297C18.2127 18.3436 18.2082 18.5645 18.1559 18.7764C18.1036 18.9883 18.0049 19.1859 17.8668 19.355C17.7287 19.524 17.5548 19.6602 17.3575 19.7537C17.1603 19.8472 16.9448 19.8957 16.7265 19.8957C16.5082 19.8957 16.2927 19.8471 16.0955 19.7535C15.8984 19.6599 15.7245 19.5236 15.5865 19.3545C15.4484 19.1854 15.3498 18.9877 15.2975 18.7758C15.2453 18.5639 15.2409 18.343 15.2846 18.1291L15.2903 18.1023L15.3052 18.0429L15.2852 18.1297C15.3471 17.8229 15.506 17.5441 15.7383 17.3343C15.9591 17.1344 16.2352 17.006 16.5303 16.9657C16.5956 16.9569 16.6615 16.9525 16.7274 16.9526ZM7.30744 16.9526C7.34058 16.9526 7.37315 16.9537 7.40572 16.9554L7.30744 16.9526C7.51221 16.953 7.7147 16.9956 7.90229 17.0777C8.10828 17.1682 8.29055 17.3051 8.43487 17.4777C8.59214 17.6654 8.70033 17.8893 8.74972 18.1291C8.79331 18.343 8.7888 18.5639 8.73651 18.7758C8.68421 18.9877 8.58544 19.1853 8.44736 19.3544C8.30927 19.5234 8.13533 19.6596 7.93811 19.7531C7.7409 19.8467 7.52535 19.8952 7.30709 19.8951C7.08882 19.8951 6.8733 19.8465 6.67612 19.7529C6.47894 19.6593 6.30505 19.523 6.16703 19.3539C6.02901 19.1848 5.93032 18.9872 5.87811 18.7752C5.8259 18.5633 5.82148 18.3424 5.86515 18.1286L5.87087 18.1023L5.88515 18.0429L5.86515 18.1297C5.9222 17.8471 6.06157 17.5876 6.26572 17.384C6.47134 17.179 6.73263 17.0389 7.01715 16.9811C7.05217 16.9741 7.08743 16.9684 7.12287 16.964L7.2063 16.956C7.24172 16.9537 7.27487 16.9526 7.30744 16.9526ZM21.1429 11.4286H22.8572V13.1429H21.1429V16.4154C21.1429 16.6406 21.0985 16.8635 21.0124 17.0715C20.9262 17.2794 20.7999 17.4684 20.6408 17.6276C20.4816 17.7868 20.2926 17.9131 20.0846 17.9992C19.8766 18.0854 19.6537 18.1297 19.4286 18.1297H19.3257C19.2501 17.4603 18.9186 16.8461 18.4006 16.4154H19.4286L19.428 13.1429H17.7143V11.4286H21.1429ZM19.4286 4C19.6537 4 19.8766 4.04434 20.0846 4.13049C20.2926 4.21664 20.4816 4.34292 20.6408 4.5021C20.7999 4.66129 20.9262 4.85027 21.0124 5.05826C21.0985 5.26624 21.1429 5.48916 21.1429 5.71429V10.2857L20.5714 10.2851L15.4286 10.2857V8.57143H19.428L19.4286 5.71429H8.72744L8.72629 9.59257H8.75315V14.2771L3.42858 14.2766V16.4154H5.63372C5.1159 16.8462 4.78462 17.4604 4.70915 18.1297H3.42858C2.97392 18.1297 2.53789 17.9491 2.2164 17.6276C1.89491 17.3061 1.71429 16.8701 1.71429 16.4154V11.664C1.71431 11.315 1.82084 10.9743 2.01965 10.6875C2.21846 10.4007 2.50008 10.1814 2.82687 10.0589L7.01258 8.48914V5.71429C7.01258 5.25963 7.19319 4.82359 7.51468 4.5021C7.83617 4.18061 8.27221 4 8.72687 4H19.4286ZM15.0537 16.4149C14.5359 16.8456 14.2046 17.4598 14.1292 18.1291H9.90572C9.8301 17.4597 9.49862 16.8455 8.98058 16.4149H15.0537ZM7.03887 10.3097L3.42858 11.664L3.42801 12.5623H7.03944L7.03887 10.3097Z" fill="#BC8700"/>
</svg>
