<svg width="24" height="24" viewBox="0 0 24 24" fill="none" xmlns="http://www.w3.org/2000/svg">
<path d="M12.4417 2.34353L19.8703 4.32467C20.2353 4.42201 20.5579 4.63717 20.788 4.93674C21.0182 5.2363 21.1429 5.60349 21.1429 5.98124V15.3761C21.1429 15.6454 21.0795 15.911 20.9578 16.1512C20.8361 16.3915 20.6595 16.5997 20.4423 16.759L13.0137 22.2064C12.7197 22.422 12.3646 22.5382 12 22.5382C11.6354 22.5382 11.2803 22.422 10.9863 22.2064L3.55771 16.7584C3.3406 16.5992 3.16403 16.3911 3.04232 16.1509C2.92061 15.9108 2.85717 15.6453 2.85714 15.3761V5.98124C2.85711 5.60349 2.98184 5.2363 3.21197 4.93674C3.44209 4.63717 3.76472 4.42201 4.12971 4.32467L11.5583 2.34353C11.8477 2.26635 12.1523 2.26635 12.4417 2.34353ZM12 4.0001L4.57143 5.98124V15.3761L12 20.8241L19.4286 15.3761V5.98124L12 4.0001ZM15.3971 7.33153L16.6029 8.54924L10.4657 14.6247L7.39429 11.5544L8.60572 10.3418L10.472 12.207L15.3971 7.33096V7.33153Z" fill="#BC8700"/>
</svg>
