<svg width="16" height="17" viewBox="0 0 16 17" fill="none" xmlns="http://www.w3.org/2000/svg">
<path d="M7.99999 6.41699C6.85311 6.41699 5.91718 7.35293 5.91718 8.4998C5.91718 9.64668 6.85311 10.5826 7.99999 10.5826C9.14686 10.5826 10.0828 9.64668 10.0828 8.4998C10.0828 7.35293 9.14686 6.41699 7.99999 6.41699Z" fill="white"/>
<path d="M14.2469 8.50017C14.2469 7.63767 14.2547 6.78298 14.2063 5.92205C14.1578 4.92205 13.9297 4.03455 13.1985 3.3033C12.4656 2.57048 11.5797 2.34392 10.5797 2.29548C9.7172 2.24705 8.86251 2.25486 8.00157 2.25486C7.13907 2.25486 6.28439 2.24705 5.42345 2.29548C4.42345 2.34392 3.53595 2.57205 2.8047 3.3033C2.07189 4.03611 1.84533 4.92205 1.79689 5.92205C1.74845 6.78455 1.75626 7.63923 1.75626 8.50017C1.75626 9.36111 1.74845 10.2174 1.79689 11.0783C1.84533 12.0783 2.07345 12.9658 2.8047 13.697C3.53751 14.4299 4.42345 14.6564 5.42345 14.7049C6.28595 14.7533 7.14064 14.7455 8.00157 14.7455C8.86408 14.7455 9.71876 14.7533 10.5797 14.7049C11.5797 14.6564 12.4672 14.4283 13.1985 13.697C13.9313 12.9642 14.1578 12.0783 14.2063 11.0783C14.2563 10.2174 14.2469 9.36267 14.2469 8.50017ZM8.00001 11.7049C6.22658 11.7049 4.79533 10.2736 4.79533 8.50017C4.79533 6.72673 6.22658 5.29548 8.00001 5.29548C9.77345 5.29548 11.2047 6.72673 11.2047 8.50017C11.2047 10.2736 9.77345 11.7049 8.00001 11.7049ZM11.336 5.91267C10.9219 5.91267 10.5875 5.5783 10.5875 5.16423C10.5875 4.75017 10.9219 4.4158 11.336 4.4158C11.75 4.4158 12.0844 4.75017 12.0844 5.16423C12.0828 5.57986 11.75 5.91267 11.336 5.91267Z" fill="white"/>
</svg>
