<svg width="28" height="28" viewBox="0 0 28 28" fill="none" xmlns="http://www.w3.org/2000/svg">
<path d="M13.9997 2.66669C18.7863 2.66669 22.6663 6.50335 22.6663 11.236C22.6663 11.336 22.6643 11.436 22.6603 11.538C22.5537 14.37 20.9703 17.5547 18.3717 20.784C17.1351 22.3144 15.7783 23.7436 14.3143 25.058L13.9997 25.3334L13.685 25.058L13.307 24.7154C11.9864 23.4961 10.7565 22.1822 9.62701 20.784C7.02901 17.5547 5.44567 14.37 5.33901 11.5374C5.33512 11.4372 5.33312 11.3369 5.33301 11.2367C5.33301 6.56869 9.10767 2.77269 13.8037 2.67002L13.9997 2.66669ZM13.9997 4.55602C10.227 4.55602 7.19034 7.55935 7.19034 11.236C7.19034 11.3114 7.19167 11.388 7.19434 11.4654C7.28034 13.7274 8.60367 16.5287 11.065 19.5867C11.8519 20.5615 12.6909 21.4931 13.5783 22.3774L13.9997 22.7907L14.421 22.3774C15.3085 21.4931 16.1475 20.5615 16.9343 19.5867C19.3957 16.5287 20.719 13.7267 20.805 11.4654C20.8077 11.388 20.809 11.312 20.809 11.236C20.809 7.55935 17.7723 4.55602 13.9997 4.55602ZM13.9997 6.76069C16.393 6.76069 18.333 8.73402 18.333 11.1694C18.333 13.604 16.393 15.578 13.9997 15.578C11.6063 15.578 9.66634 13.6047 9.66634 11.1694C9.66634 8.73469 11.6063 6.76069 13.9997 6.76069ZM13.9997 8.65002C12.6323 8.65002 11.5237 9.77802 11.5237 11.1694C11.5237 12.5607 12.6323 13.6887 13.9997 13.6887C15.367 13.6887 16.4757 12.5607 16.4757 11.1694C16.4757 9.77802 15.367 8.65002 13.9997 8.65002Z" fill="#1A1A1A"/>
</svg>
