<svg width="16" height="16" viewBox="0 0 16 16" fill="none" xmlns="http://www.w3.org/2000/svg">
<rect width="16" height="16" fill="#1E1E1E"/>
<g id="&#228;&#186;&#167;&#229;&#147;&#129;&#229;&#136;&#151;&#232;&#161;&#168;" clip-path="url(#clip0_0_1)">
<rect width="390" height="2575" transform="translate(-25 -151)" fill="white"/>
<g id="&#230;&#137;&#139;&#230;&#156;&#186;&#231;&#171;&#175;&#229;&#175;&#188;&#232;&#136;&#170;&#230;&#160;&#143;" clip-path="url(#clip1_0_1)">
<rect width="390" height="136" transform="translate(-25 -104)" fill="white"/>
<rect id="Rectangle 12" x="-25" y="-8" width="390" height="41" fill="#1A1A1A"/>
<path id="Usa il codice &#34;SALDI&#34; ottieni uno sconto del 10%." d="M11.6299 17.2324C10.8141 17.2324 10.1123 17.0798 9.52441 16.7744C8.94108 16.4691 8.49219 16.0452 8.17773 15.5029C7.86328 14.9561 7.70605 14.3249 7.70605 13.6094V7.13574H8.93652V13.5273C8.93652 14.2839 9.17122 14.9014 9.64062 15.3799C10.1146 15.8584 10.7777 16.0977 11.6299 16.0977C12.4867 16.0977 13.1475 15.8584 13.6123 15.3799C14.0771 14.9014 14.3096 14.2839 14.3096 13.5273V7.13574H15.54V13.6094C15.54 14.3249 15.3828 14.9561 15.0684 15.5029C14.7585 16.0452 14.3118 16.4691 13.7285 16.7744C13.1452 17.0798 12.4456 17.2324 11.6299 17.2324ZM20.4209 17.1299C19.874 17.1299 19.391 17.0479 18.9717 16.8838C18.5524 16.7152 18.2152 16.4805 17.96 16.1797C17.7093 15.8789 17.5612 15.5257 17.5156 15.1201H18.7324C18.8327 15.4255 19.0286 15.6715 19.3203 15.8584C19.612 16.0452 19.9925 16.1387 20.4619 16.1387C20.7946 16.1387 21.0863 16.0908 21.3369 15.9951C21.5921 15.8949 21.7926 15.7604 21.9385 15.5918C22.0843 15.4186 22.1572 15.2204 22.1572 14.9971V14.9834C22.1572 14.7327 22.057 14.5208 21.8564 14.3477C21.6559 14.1699 21.3278 14.0264 20.8721 13.917L19.7305 13.6436C19.0423 13.4795 18.5365 13.2402 18.2129 12.9258C17.8893 12.6068 17.7275 12.1829 17.7275 11.6543V11.6475C17.7275 11.2373 17.846 10.8704 18.083 10.5469C18.3245 10.2233 18.6527 9.9681 19.0674 9.78125C19.4821 9.5944 19.9492 9.50098 20.4688 9.50098C20.9837 9.50098 21.4395 9.58301 21.8359 9.74707C22.237 9.90658 22.5583 10.1344 22.7998 10.4307C23.0459 10.7269 23.1963 11.0755 23.251 11.4766H22.082C22.0046 11.1849 21.8268 10.9479 21.5488 10.7656C21.2708 10.5833 20.9085 10.4922 20.4619 10.4922C20.1702 10.4922 19.9105 10.54 19.6826 10.6357C19.4548 10.7269 19.2747 10.8545 19.1426 11.0186C19.0104 11.1826 18.9443 11.374 18.9443 11.5928V11.6064C18.9443 11.8571 19.0423 12.0645 19.2383 12.2285C19.4342 12.3926 19.7487 12.527 20.1816 12.6318L21.3164 12.9053C22.0091 13.0739 22.5241 13.3154 22.8613 13.6299C23.2031 13.9443 23.374 14.3659 23.374 14.8945V14.9082C23.374 15.3457 23.2441 15.7331 22.9844 16.0703C22.7246 16.403 22.3714 16.6628 21.9248 16.8496C21.4827 17.0365 20.9814 17.1299 20.4209 17.1299ZM27.2432 17.1299C26.7783 17.1299 26.359 17.041 25.9854 16.8633C25.6162 16.6855 25.3223 16.4326 25.1035 16.1045C24.8893 15.7764 24.7822 15.389 24.7822 14.9424V14.9287C24.7822 14.2725 25.0146 13.7598 25.4795 13.3906C25.9489 13.0169 26.612 12.805 27.4688 12.7549L30.1758 12.5908V13.541L27.6123 13.7051C27.0518 13.737 26.6416 13.8532 26.3818 14.0537C26.1266 14.2542 25.999 14.5368 25.999 14.9014V14.915C25.999 15.2887 26.1403 15.5804 26.4229 15.79C26.7054 15.9951 27.0609 16.0977 27.4893 16.0977C27.8949 16.0977 28.2549 16.0179 28.5693 15.8584C28.8838 15.6943 29.1299 15.4733 29.3076 15.1953C29.4899 14.9173 29.5811 14.6029 29.5811 14.252V11.9551C29.5811 11.4993 29.4421 11.153 29.1641 10.916C28.8906 10.6745 28.4782 10.5537 27.9268 10.5537C27.4847 10.5537 27.1224 10.6335 26.8398 10.793C26.5573 10.9479 26.3682 11.1689 26.2725 11.4561L26.2656 11.4766H25.0762L25.083 11.4355C25.1468 11.0482 25.3063 10.7109 25.5615 10.4238C25.8213 10.1322 26.1562 9.90658 26.5664 9.74707C26.9766 9.58301 27.4437 9.50098 27.9678 9.50098C28.5693 9.50098 29.0775 9.59896 29.4922 9.79492C29.9115 9.99089 30.2282 10.2734 30.4424 10.6426C30.6611 11.0072 30.7705 11.4447 30.7705 11.9551V17H29.5811V15.9131H29.4717C29.3167 16.1729 29.1276 16.3939 28.9043 16.5762C28.6855 16.7585 28.4372 16.8975 28.1592 16.9932C27.8812 17.0843 27.5758 17.1299 27.2432 17.1299ZM36.9092 17V9.63086H38.0986V17H36.9092ZM37.5107 8.20898C37.2874 8.20898 37.0938 8.12923 36.9297 7.96973C36.7702 7.80566 36.6904 7.61198 36.6904 7.38867C36.6904 7.16081 36.7702 6.96712 36.9297 6.80762C37.0938 6.64811 37.2874 6.56836 37.5107 6.56836C37.7386 6.56836 37.9323 6.64811 38.0918 6.80762C38.2513 6.96712 38.3311 7.16081 38.3311 7.38867C38.3311 7.61198 38.2513 7.80566 38.0918 7.96973C37.9323 8.12923 37.7386 8.20898 37.5107 8.20898ZM40.4092 17V6.70508H41.5986V17H40.4092ZM50.834 17.1299C50.1458 17.1299 49.5488 16.9727 49.043 16.6582C48.5371 16.3438 48.1452 15.8994 47.8672 15.3252C47.5892 14.751 47.4502 14.0742 47.4502 13.2949V13.2812C47.4502 12.5156 47.5869 11.8503 47.8604 11.2852C48.1383 10.7201 48.5303 10.2826 49.0361 9.97266C49.542 9.6582 50.139 9.50098 50.8271 9.50098C51.4242 9.50098 51.9391 9.60579 52.3721 9.81543C52.805 10.0251 53.1514 10.3076 53.4111 10.6631C53.6709 11.014 53.8372 11.4082 53.9102 11.8457L53.917 11.8867H52.7344L52.7275 11.8662C52.6364 11.5016 52.429 11.1917 52.1055 10.9365C51.7819 10.6813 51.3558 10.5537 50.8271 10.5537C50.3851 10.5537 50.0023 10.6654 49.6787 10.8887C49.3551 11.112 49.1045 11.4287 48.9268 11.8389C48.7536 12.2445 48.667 12.7253 48.667 13.2812V13.2949C48.667 13.86 48.7559 14.3522 48.9336 14.7715C49.1113 15.1862 49.362 15.5075 49.6855 15.7354C50.0091 15.9632 50.3896 16.0771 50.8271 16.0771C51.3239 16.0771 51.7295 15.9701 52.0439 15.7559C52.3584 15.5417 52.584 15.2295 52.7207 14.8193L52.7344 14.7783L53.9102 14.7715L53.8965 14.8467C53.7962 15.2887 53.6185 15.6829 53.3633 16.0293C53.1081 16.3711 52.7708 16.64 52.3516 16.8359C51.9323 17.0319 51.4264 17.1299 50.834 17.1299ZM58.6816 17.1299C57.9844 17.1299 57.3805 16.9772 56.8701 16.6719C56.3643 16.362 55.9723 15.9222 55.6943 15.3525C55.4209 14.7829 55.2842 14.1061 55.2842 13.3223V13.3086C55.2842 12.5202 55.4209 11.8411 55.6943 11.2715C55.9723 10.7018 56.3643 10.2643 56.8701 9.95898C57.3805 9.65365 57.9844 9.50098 58.6816 9.50098C59.3835 9.50098 59.9873 9.65365 60.4932 9.95898C60.999 10.2643 61.3887 10.7018 61.6621 11.2715C61.9401 11.8411 62.0791 12.5202 62.0791 13.3086V13.3223C62.0791 14.1061 61.9401 14.7829 61.6621 15.3525C61.3887 15.9222 60.999 16.362 60.4932 16.6719C59.9873 16.9772 59.3835 17.1299 58.6816 17.1299ZM58.6816 16.0771C59.1465 16.0771 59.5407 15.9678 59.8643 15.749C60.1878 15.5303 60.4339 15.2158 60.6025 14.8057C60.7757 14.3955 60.8623 13.901 60.8623 13.3223V13.3086C60.8623 12.7253 60.7757 12.2285 60.6025 11.8184C60.4339 11.4082 60.1878 11.096 59.8643 10.8818C59.5407 10.6631 59.1465 10.5537 58.6816 10.5537C58.2168 10.5537 57.8226 10.6631 57.499 10.8818C57.1755 11.096 56.9271 11.4082 56.7539 11.8184C56.5853 12.2285 56.501 12.7253 56.501 13.3086V13.3223C56.501 13.901 56.5853 14.3955 56.7539 14.8057C56.9271 15.2158 57.1755 15.5303 57.499 15.749C57.8226 15.9678 58.2168 16.0771 58.6816 16.0771ZM66.6455 17.1299C66.0257 17.1299 65.4834 16.9727 65.0186 16.6582C64.5537 16.3438 64.1937 15.9017 63.9385 15.332C63.6833 14.7578 63.5557 14.0879 63.5557 13.3223V13.3086C63.5557 12.5384 63.6833 11.8685 63.9385 11.2988C64.1937 10.7292 64.5514 10.2871 65.0117 9.97266C65.4766 9.6582 66.0212 9.50098 66.6455 9.50098C67.1514 9.50098 67.6094 9.61947 68.0195 9.85645C68.4342 10.0889 68.7419 10.401 68.9424 10.793H69.0518V6.70508H70.2412V17H69.0518V15.8242H68.9424C68.7191 16.2344 68.4092 16.5557 68.0127 16.7881C67.6162 17.016 67.1605 17.1299 66.6455 17.1299ZM66.9189 16.0771C67.3656 16.0771 67.7507 15.9655 68.0742 15.7422C68.3978 15.5189 68.6462 15.2021 68.8193 14.792C68.9925 14.3773 69.0791 13.8874 69.0791 13.3223V13.3086C69.0791 12.7389 68.9925 12.249 68.8193 11.8389C68.6462 11.4287 68.3978 11.112 68.0742 10.8887C67.7507 10.6654 67.3656 10.5537 66.9189 10.5537C66.4723 10.5537 66.0872 10.6654 65.7637 10.8887C65.4447 11.1074 65.1986 11.4219 65.0254 11.832C64.8568 12.2422 64.7725 12.7344 64.7725 13.3086V13.3223C64.7725 13.8919 64.8568 14.3841 65.0254 14.7988C65.1986 15.209 65.4447 15.5257 65.7637 15.749C66.0872 15.9678 66.4723 16.0771 66.9189 16.0771ZM72.5518 17V9.63086H73.7412V17H72.5518ZM73.1533 8.20898C72.93 8.20898 72.7363 8.12923 72.5723 7.96973C72.4128 7.80566 72.333 7.61198 72.333 7.38867C72.333 7.16081 72.4128 6.96712 72.5723 6.80762C72.7363 6.64811 72.93 6.56836 73.1533 6.56836C73.3812 6.56836 73.5749 6.64811 73.7344 6.80762C73.8939 6.96712 73.9736 7.16081 73.9736 7.38867C73.9736 7.61198 73.8939 7.80566 73.7344 7.96973C73.5749 8.12923 73.3812 8.20898 73.1533 8.20898ZM78.998 17.1299C78.3099 17.1299 77.7129 16.9727 77.207 16.6582C76.7012 16.3438 76.3092 15.8994 76.0312 15.3252C75.7533 14.751 75.6143 14.0742 75.6143 13.2949V13.2812C75.6143 12.5156 75.751 11.8503 76.0244 11.2852C76.3024 10.7201 76.6943 10.2826 77.2002 9.97266C77.7061 9.6582 78.3031 9.50098 78.9912 9.50098C79.5882 9.50098 80.1032 9.60579 80.5361 9.81543C80.9691 10.0251 81.3154 10.3076 81.5752 10.6631C81.835 11.014 82.0013 11.4082 82.0742 11.8457L82.0811 11.8867H80.8984L80.8916 11.8662C80.8005 11.5016 80.5931 11.1917 80.2695 10.9365C79.946 10.6813 79.5199 10.5537 78.9912 10.5537C78.5492 10.5537 78.1663 10.6654 77.8428 10.8887C77.5192 11.112 77.2686 11.4287 77.0908 11.8389C76.9176 12.2445 76.8311 12.7253 76.8311 13.2812V13.2949C76.8311 13.86 76.9199 14.3522 77.0977 14.7715C77.2754 15.1862 77.526 15.5075 77.8496 15.7354C78.1732 15.9632 78.5537 16.0771 78.9912 16.0771C79.488 16.0771 79.8936 15.9701 80.208 15.7559C80.5225 15.5417 80.748 15.2295 80.8848 14.8193L80.8984 14.7783L82.0742 14.7715L82.0605 14.8467C81.9603 15.2887 81.7826 15.6829 81.5273 16.0293C81.2721 16.3711 80.9349 16.64 80.5156 16.8359C80.0964 17.0319 79.5905 17.1299 78.998 17.1299ZM86.8252 17.1299C86.1234 17.1299 85.5195 16.9749 85.0137 16.665C84.5124 16.3551 84.125 15.9176 83.8516 15.3525C83.5827 14.7829 83.4482 14.113 83.4482 13.3428V13.3359C83.4482 12.5749 83.5827 11.9072 83.8516 11.333C84.125 10.7588 84.5101 10.3099 85.0068 9.98633C85.5036 9.66276 86.0846 9.50098 86.75 9.50098C87.4199 9.50098 87.9941 9.65592 88.4727 9.96582C88.9557 10.2757 89.3249 10.7087 89.5801 11.2646C89.8398 11.8161 89.9697 12.4587 89.9697 13.1924V13.6572H84.0635V12.707H89.3613L88.7734 13.5752V13.1035C88.7734 12.5247 88.6868 12.0485 88.5137 11.6748C88.3405 11.3011 88.1012 11.0231 87.7959 10.8408C87.4906 10.654 87.1396 10.5605 86.7432 10.5605C86.3467 10.5605 85.9912 10.6585 85.6768 10.8545C85.3669 11.0459 85.1208 11.3307 84.9385 11.709C84.7562 12.0872 84.665 12.5521 84.665 13.1035V13.5752C84.665 14.0993 84.7539 14.5482 84.9316 14.9219C85.1094 15.291 85.3623 15.5758 85.6904 15.7764C86.0186 15.9723 86.4059 16.0703 86.8525 16.0703C87.1852 16.0703 87.4746 16.0247 87.7207 15.9336C87.9668 15.8424 88.1696 15.7262 88.3291 15.585C88.4886 15.4437 88.6003 15.3001 88.6641 15.1543L88.6914 15.0928H89.8809L89.8672 15.1475C89.8034 15.3981 89.6895 15.6419 89.5254 15.8789C89.3659 16.1113 89.1585 16.3232 88.9033 16.5146C88.6481 16.7015 88.3451 16.8519 87.9941 16.9658C87.6478 17.0752 87.2581 17.1299 86.8252 17.1299ZM96.2314 11.0254L96.0879 7.13574H97.3594L97.2158 11.0254H96.2314ZM98.7607 11.0254L98.6172 7.13574H99.8887L99.7451 11.0254H98.7607ZM105.822 17.2324C105.102 17.2324 104.473 17.1162 103.936 16.8838C103.402 16.6468 102.979 16.3232 102.664 15.9131C102.354 15.4984 102.174 15.0244 102.124 14.4912L102.117 14.416H103.348L103.354 14.4912C103.386 14.8193 103.512 15.1042 103.73 15.3457C103.954 15.5827 104.25 15.7673 104.619 15.8994C104.993 16.0316 105.417 16.0977 105.891 16.0977C106.337 16.0977 106.734 16.027 107.08 15.8857C107.431 15.7399 107.707 15.5394 107.907 15.2842C108.108 15.029 108.208 14.735 108.208 14.4023V14.3955C108.208 13.9854 108.058 13.6413 107.757 13.3633C107.456 13.0807 106.966 12.8643 106.287 12.7139L105.193 12.4746C104.204 12.2559 103.484 11.9186 103.033 11.4629C102.587 11.0026 102.363 10.4147 102.363 9.69922V9.69238C102.368 9.14551 102.516 8.66243 102.808 8.24316C103.104 7.82389 103.512 7.49577 104.031 7.25879C104.555 7.02181 105.157 6.90332 105.836 6.90332C106.492 6.90332 107.073 7.02181 107.579 7.25879C108.085 7.49121 108.486 7.80566 108.782 8.20215C109.083 8.59863 109.249 9.04297 109.281 9.53516L109.288 9.63086H108.058L108.044 9.54199C107.998 9.25033 107.88 8.99284 107.688 8.76953C107.497 8.54167 107.242 8.36165 106.923 8.22949C106.604 8.09733 106.23 8.03353 105.802 8.03809C105.392 8.03809 105.022 8.10189 104.694 8.22949C104.366 8.3571 104.104 8.54167 103.908 8.7832C103.717 9.02018 103.621 9.31185 103.621 9.6582V9.66504C103.621 10.057 103.767 10.3874 104.059 10.6562C104.35 10.9251 104.831 11.1325 105.501 11.2783L106.595 11.5244C107.625 11.7523 108.361 12.0827 108.803 12.5156C109.245 12.9486 109.466 13.5205 109.466 14.2314V14.2383C109.466 14.8535 109.315 15.3844 109.015 15.8311C108.714 16.2777 108.29 16.624 107.743 16.8701C107.196 17.1117 106.556 17.2324 105.822 17.2324ZM110.73 17L114.367 7.13574H115.311V8.72852H114.921L112.022 17H110.73ZM112.378 14.1768L112.761 13.1309H117.218L117.601 14.1768H112.378ZM117.929 17L115.03 8.72852V7.13574H115.584L119.221 17H117.929ZM120.95 17V7.13574H122.181V15.8926H126.938V17H120.95ZM128.907 17V7.13574H132.291C133.266 7.13574 134.1 7.33171 134.793 7.72363C135.49 8.111 136.023 8.67155 136.393 9.40527C136.762 10.139 136.946 11.0231 136.946 12.0576V12.0713C136.946 13.1058 136.762 13.9922 136.393 14.7305C136.023 15.4642 135.493 16.027 134.8 16.4189C134.107 16.8063 133.271 17 132.291 17H128.907ZM130.138 15.8926H132.209C132.943 15.8926 133.569 15.7422 134.089 15.4414C134.608 15.1406 135.005 14.7054 135.278 14.1357C135.552 13.5661 135.688 12.8825 135.688 12.085V12.0713C135.688 11.2692 135.549 10.5833 135.271 10.0137C134.998 9.43945 134.602 9.00195 134.082 8.70117C133.562 8.39583 132.938 8.24316 132.209 8.24316H130.138V15.8926ZM139.079 17V7.13574H140.31V17H139.079ZM143.153 11.0254L143.01 7.13574H144.281L144.138 11.0254H143.153ZM145.683 11.0254L145.539 7.13574H146.811L146.667 11.0254H145.683ZM156.326 17.1299C155.629 17.1299 155.025 16.9772 154.515 16.6719C154.009 16.362 153.617 15.9222 153.339 15.3525C153.065 14.7829 152.929 14.1061 152.929 13.3223V13.3086C152.929 12.5202 153.065 11.8411 153.339 11.2715C153.617 10.7018 154.009 10.2643 154.515 9.95898C155.025 9.65365 155.629 9.50098 156.326 9.50098C157.028 9.50098 157.632 9.65365 158.138 9.95898C158.644 10.2643 159.033 10.7018 159.307 11.2715C159.585 11.8411 159.724 12.5202 159.724 13.3086V13.3223C159.724 14.1061 159.585 14.7829 159.307 15.3525C159.033 15.9222 158.644 16.362 158.138 16.6719C157.632 16.9772 157.028 17.1299 156.326 17.1299ZM156.326 16.0771C156.791 16.0771 157.185 15.9678 157.509 15.749C157.832 15.5303 158.078 15.2158 158.247 14.8057C158.42 14.3955 158.507 13.901 158.507 13.3223V13.3086C158.507 12.7253 158.42 12.2285 158.247 11.8184C158.078 11.4082 157.832 11.096 157.509 10.8818C157.185 10.6631 156.791 10.5537 156.326 10.5537C155.861 10.5537 155.467 10.6631 155.144 10.8818C154.82 11.096 154.572 11.4082 154.398 11.8184C154.23 12.2285 154.146 12.7253 154.146 13.3086V13.3223C154.146 13.901 154.23 14.3955 154.398 14.8057C154.572 15.2158 154.82 15.5303 155.144 15.749C155.467 15.9678 155.861 16.0771 156.326 16.0771ZM164.188 17.0547C163.431 17.0547 162.882 16.902 162.54 16.5967C162.203 16.2913 162.034 15.7878 162.034 15.0859V10.6152H160.872V9.63086H162.034V7.72363H163.265V9.63086H164.878V10.6152H163.265V14.7852C163.265 15.2181 163.347 15.5303 163.511 15.7217C163.675 15.9085 163.948 16.002 164.331 16.002C164.436 16.002 164.525 15.9997 164.598 15.9951C164.675 15.9906 164.769 15.9837 164.878 15.9746V16.9863C164.764 17.0046 164.65 17.0205 164.536 17.0342C164.422 17.0479 164.306 17.0547 164.188 17.0547ZM169.273 17.0547C168.517 17.0547 167.968 16.902 167.626 16.5967C167.289 16.2913 167.12 15.7878 167.12 15.0859V10.6152H165.958V9.63086H167.12V7.72363H168.351V9.63086H169.964V10.6152H168.351V14.7852C168.351 15.2181 168.433 15.5303 168.597 15.7217C168.761 15.9085 169.034 16.002 169.417 16.002C169.522 16.002 169.611 15.9997 169.684 15.9951C169.761 15.9906 169.854 15.9837 169.964 15.9746V16.9863C169.85 17.0046 169.736 17.0205 169.622 17.0342C169.508 17.0479 169.392 17.0547 169.273 17.0547ZM171.769 17V9.63086H172.958V17H171.769ZM172.37 8.20898C172.147 8.20898 171.953 8.12923 171.789 7.96973C171.63 7.80566 171.55 7.61198 171.55 7.38867C171.55 7.16081 171.63 6.96712 171.789 6.80762C171.953 6.64811 172.147 6.56836 172.37 6.56836C172.598 6.56836 172.792 6.64811 172.951 6.80762C173.111 6.96712 173.19 7.16081 173.19 7.38867C173.19 7.61198 173.111 7.80566 172.951 7.96973C172.792 8.12923 172.598 8.20898 172.37 8.20898ZM178.208 17.1299C177.506 17.1299 176.902 16.9749 176.396 16.665C175.895 16.3551 175.508 15.9176 175.234 15.3525C174.965 14.7829 174.831 14.113 174.831 13.3428V13.3359C174.831 12.5749 174.965 11.9072 175.234 11.333C175.508 10.7588 175.893 10.3099 176.39 9.98633C176.886 9.66276 177.467 9.50098 178.133 9.50098C178.803 9.50098 179.377 9.65592 179.855 9.96582C180.339 10.2757 180.708 10.7087 180.963 11.2646C181.223 11.8161 181.353 12.4587 181.353 13.1924V13.6572H175.446V12.707H180.744L180.156 13.5752V13.1035C180.156 12.5247 180.07 12.0485 179.896 11.6748C179.723 11.3011 179.484 11.0231 179.179 10.8408C178.873 10.654 178.522 10.5605 178.126 10.5605C177.729 10.5605 177.374 10.6585 177.06 10.8545C176.75 11.0459 176.504 11.3307 176.321 11.709C176.139 12.0872 176.048 12.5521 176.048 13.1035V13.5752C176.048 14.0993 176.137 14.5482 176.314 14.9219C176.492 15.291 176.745 15.5758 177.073 15.7764C177.401 15.9723 177.789 16.0703 178.235 16.0703C178.568 16.0703 178.857 16.0247 179.104 15.9336C179.35 15.8424 179.552 15.7262 179.712 15.585C179.871 15.4437 179.983 15.3001 180.047 15.1543L180.074 15.0928H181.264L181.25 15.1475C181.186 15.3981 181.072 15.6419 180.908 15.8789C180.749 16.1113 180.541 16.3232 180.286 16.5146C180.031 16.7015 179.728 16.8519 179.377 16.9658C179.031 17.0752 178.641 17.1299 178.208 17.1299ZM183.198 17V9.63086H184.388V10.7383H184.497C184.684 10.3464 184.953 10.0433 185.304 9.8291C185.655 9.61035 186.101 9.50098 186.644 9.50098C187.473 9.50098 188.109 9.73796 188.551 10.2119C188.997 10.6813 189.221 11.3535 189.221 12.2285V17H188.031V12.5156C188.031 11.8503 187.89 11.3581 187.607 11.0391C187.329 10.7155 186.896 10.5537 186.309 10.5537C185.917 10.5537 185.577 10.638 185.29 10.8066C185.003 10.9753 184.78 11.2145 184.62 11.5244C184.465 11.8343 184.388 12.2057 184.388 12.6387V17H183.198ZM191.401 17V9.63086H192.591V17H191.401ZM192.003 8.20898C191.78 8.20898 191.586 8.12923 191.422 7.96973C191.262 7.80566 191.183 7.61198 191.183 7.38867C191.183 7.16081 191.262 6.96712 191.422 6.80762C191.586 6.64811 191.78 6.56836 192.003 6.56836C192.231 6.56836 192.424 6.64811 192.584 6.80762C192.743 6.96712 192.823 7.16081 192.823 7.38867C192.823 7.61198 192.743 7.80566 192.584 7.96973C192.424 8.12923 192.231 8.20898 192.003 8.20898ZM201.238 17.1299C200.682 17.1299 200.215 17.0251 199.837 16.8154C199.459 16.6012 199.174 16.2913 198.982 15.8857C198.796 15.4756 198.702 14.9811 198.702 14.4023V9.63086H199.892V14.1152C199.892 14.776 200.019 15.2682 200.274 15.5918C200.534 15.9154 200.958 16.0771 201.546 16.0771C201.979 16.0771 202.343 15.9928 202.64 15.8242C202.936 15.6556 203.159 15.4163 203.31 15.1064C203.46 14.792 203.535 14.4206 203.535 13.9922V9.63086H204.725V17H203.535V15.8994H203.426C203.243 16.2913 202.968 16.5944 202.599 16.8086C202.234 17.0228 201.781 17.1299 201.238 17.1299ZM206.946 17V9.63086H208.136V10.7383H208.245C208.432 10.3464 208.701 10.0433 209.052 9.8291C209.403 9.61035 209.849 9.50098 210.392 9.50098C211.221 9.50098 211.857 9.73796 212.299 10.2119C212.745 10.6813 212.969 11.3535 212.969 12.2285V17H211.779V12.5156C211.779 11.8503 211.638 11.3581 211.355 11.0391C211.077 10.7155 210.645 10.5537 210.057 10.5537C209.665 10.5537 209.325 10.638 209.038 10.8066C208.751 10.9753 208.528 11.2145 208.368 11.5244C208.213 11.8343 208.136 12.2057 208.136 12.6387V17H206.946ZM218.15 17.1299C217.453 17.1299 216.849 16.9772 216.339 16.6719C215.833 16.362 215.441 15.9222 215.163 15.3525C214.89 14.7829 214.753 14.1061 214.753 13.3223V13.3086C214.753 12.5202 214.89 11.8411 215.163 11.2715C215.441 10.7018 215.833 10.2643 216.339 9.95898C216.849 9.65365 217.453 9.50098 218.15 9.50098C218.852 9.50098 219.456 9.65365 219.962 9.95898C220.468 10.2643 220.857 10.7018 221.131 11.2715C221.409 11.8411 221.548 12.5202 221.548 13.3086V13.3223C221.548 14.1061 221.409 14.7829 221.131 15.3525C220.857 15.9222 220.468 16.362 219.962 16.6719C219.456 16.9772 218.852 17.1299 218.15 17.1299ZM218.15 16.0771C218.615 16.0771 219.009 15.9678 219.333 15.749C219.657 15.5303 219.903 15.2158 220.071 14.8057C220.244 14.3955 220.331 13.901 220.331 13.3223V13.3086C220.331 12.7253 220.244 12.2285 220.071 11.8184C219.903 11.4082 219.657 11.096 219.333 10.8818C219.009 10.6631 218.615 10.5537 218.15 10.5537C217.686 10.5537 217.291 10.6631 216.968 10.8818C216.644 11.096 216.396 11.4082 216.223 11.8184C216.054 12.2285 215.97 12.7253 215.97 13.3086V13.3223C215.97 13.901 216.054 14.3955 216.223 14.8057C216.396 15.2158 216.644 15.5303 216.968 15.749C217.291 15.9678 217.686 16.0771 218.15 16.0771ZM229.86 17.1299C229.313 17.1299 228.83 17.0479 228.411 16.8838C227.992 16.7152 227.655 16.4805 227.399 16.1797C227.149 15.8789 227.001 15.5257 226.955 15.1201H228.172C228.272 15.4255 228.468 15.6715 228.76 15.8584C229.051 16.0452 229.432 16.1387 229.901 16.1387C230.234 16.1387 230.526 16.0908 230.776 15.9951C231.032 15.8949 231.232 15.7604 231.378 15.5918C231.524 15.4186 231.597 15.2204 231.597 14.9971V14.9834C231.597 14.7327 231.496 14.5208 231.296 14.3477C231.095 14.1699 230.767 14.0264 230.312 13.917L229.17 13.6436C228.482 13.4795 227.976 13.2402 227.652 12.9258C227.329 12.6068 227.167 12.1829 227.167 11.6543V11.6475C227.167 11.2373 227.285 10.8704 227.522 10.5469C227.764 10.2233 228.092 9.9681 228.507 9.78125C228.922 9.5944 229.389 9.50098 229.908 9.50098C230.423 9.50098 230.879 9.58301 231.275 9.74707C231.676 9.90658 231.998 10.1344 232.239 10.4307C232.485 10.7269 232.636 11.0755 232.69 11.4766H231.521C231.444 11.1849 231.266 10.9479 230.988 10.7656C230.71 10.5833 230.348 10.4922 229.901 10.4922C229.61 10.4922 229.35 10.54 229.122 10.6357C228.894 10.7269 228.714 10.8545 228.582 11.0186C228.45 11.1826 228.384 11.374 228.384 11.5928V11.6064C228.384 11.8571 228.482 12.0645 228.678 12.2285C228.874 12.3926 229.188 12.527 229.621 12.6318L230.756 12.9053C231.449 13.0739 231.964 13.3154 232.301 13.6299C232.643 13.9443 232.813 14.3659 232.813 14.8945V14.9082C232.813 15.3457 232.684 15.7331 232.424 16.0703C232.164 16.403 231.811 16.6628 231.364 16.8496C230.922 17.0365 230.421 17.1299 229.86 17.1299ZM237.674 17.1299C236.986 17.1299 236.389 16.9727 235.883 16.6582C235.377 16.3438 234.985 15.8994 234.707 15.3252C234.429 14.751 234.29 14.0742 234.29 13.2949V13.2812C234.29 12.5156 234.427 11.8503 234.7 11.2852C234.978 10.7201 235.37 10.2826 235.876 9.97266C236.382 9.6582 236.979 9.50098 237.667 9.50098C238.264 9.50098 238.779 9.60579 239.212 9.81543C239.645 10.0251 239.991 10.3076 240.251 10.6631C240.511 11.014 240.677 11.4082 240.75 11.8457L240.757 11.8867H239.574L239.567 11.8662C239.476 11.5016 239.269 11.1917 238.945 10.9365C238.622 10.6813 238.196 10.5537 237.667 10.5537C237.225 10.5537 236.842 10.6654 236.519 10.8887C236.195 11.112 235.944 11.4287 235.767 11.8389C235.593 12.2445 235.507 12.7253 235.507 13.2812V13.2949C235.507 13.86 235.596 14.3522 235.773 14.7715C235.951 15.1862 236.202 15.5075 236.525 15.7354C236.849 15.9632 237.229 16.0771 237.667 16.0771C238.164 16.0771 238.569 15.9701 238.884 15.7559C239.198 15.5417 239.424 15.2295 239.561 14.8193L239.574 14.7783L240.75 14.7715L240.736 14.8467C240.636 15.2887 240.458 15.6829 240.203 16.0293C239.948 16.3711 239.611 16.64 239.191 16.8359C238.772 17.0319 238.266 17.1299 237.674 17.1299ZM245.521 17.1299C244.824 17.1299 244.22 16.9772 243.71 16.6719C243.204 16.362 242.812 15.9222 242.534 15.3525C242.261 14.7829 242.124 14.1061 242.124 13.3223V13.3086C242.124 12.5202 242.261 11.8411 242.534 11.2715C242.812 10.7018 243.204 10.2643 243.71 9.95898C244.22 9.65365 244.824 9.50098 245.521 9.50098C246.223 9.50098 246.827 9.65365 247.333 9.95898C247.839 10.2643 248.229 10.7018 248.502 11.2715C248.78 11.8411 248.919 12.5202 248.919 13.3086V13.3223C248.919 14.1061 248.78 14.7829 248.502 15.3525C248.229 15.9222 247.839 16.362 247.333 16.6719C246.827 16.9772 246.223 17.1299 245.521 17.1299ZM245.521 16.0771C245.986 16.0771 246.381 15.9678 246.704 15.749C247.028 15.5303 247.274 15.2158 247.442 14.8057C247.616 14.3955 247.702 13.901 247.702 13.3223V13.3086C247.702 12.7253 247.616 12.2285 247.442 11.8184C247.274 11.4082 247.028 11.096 246.704 10.8818C246.381 10.6631 245.986 10.5537 245.521 10.5537C245.057 10.5537 244.662 10.6631 244.339 10.8818C244.015 11.096 243.767 11.4082 243.594 11.8184C243.425 12.2285 243.341 12.7253 243.341 13.3086V13.3223C243.341 13.901 243.425 14.3955 243.594 14.8057C243.767 15.2158 244.015 15.5303 244.339 15.749C244.662 15.9678 245.057 16.0771 245.521 16.0771ZM250.765 17V9.63086H251.954V10.7383H252.063C252.25 10.3464 252.519 10.0433 252.87 9.8291C253.221 9.61035 253.668 9.50098 254.21 9.50098C255.039 9.50098 255.675 9.73796 256.117 10.2119C256.564 10.6813 256.787 11.3535 256.787 12.2285V17H255.598V12.5156C255.598 11.8503 255.456 11.3581 255.174 11.0391C254.896 10.7155 254.463 10.5537 253.875 10.5537C253.483 10.5537 253.144 10.638 252.856 10.8066C252.569 10.9753 252.346 11.2145 252.187 11.5244C252.032 11.8343 251.954 12.2057 251.954 12.6387V17H250.765ZM261.559 17.0547C260.802 17.0547 260.253 16.902 259.911 16.5967C259.574 16.2913 259.405 15.7878 259.405 15.0859V10.6152H258.243V9.63086H259.405V7.72363H260.636V9.63086H262.249V10.6152H260.636V14.7852C260.636 15.2181 260.718 15.5303 260.882 15.7217C261.046 15.9085 261.319 16.002 261.702 16.002C261.807 16.002 261.896 15.9997 261.969 15.9951C262.046 15.9906 262.14 15.9837 262.249 15.9746V16.9863C262.135 17.0046 262.021 17.0205 261.907 17.0342C261.793 17.0479 261.677 17.0547 261.559 17.0547ZM266.959 17.1299C266.262 17.1299 265.658 16.9772 265.147 16.6719C264.642 16.362 264.25 15.9222 263.972 15.3525C263.698 14.7829 263.562 14.1061 263.562 13.3223V13.3086C263.562 12.5202 263.698 11.8411 263.972 11.2715C264.25 10.7018 264.642 10.2643 265.147 9.95898C265.658 9.65365 266.262 9.50098 266.959 9.50098C267.661 9.50098 268.265 9.65365 268.771 9.95898C269.276 10.2643 269.666 10.7018 269.939 11.2715C270.217 11.8411 270.356 12.5202 270.356 13.3086V13.3223C270.356 14.1061 270.217 14.7829 269.939 15.3525C269.666 15.9222 269.276 16.362 268.771 16.6719C268.265 16.9772 267.661 17.1299 266.959 17.1299ZM266.959 16.0771C267.424 16.0771 267.818 15.9678 268.142 15.749C268.465 15.5303 268.711 15.2158 268.88 14.8057C269.053 14.3955 269.14 13.901 269.14 13.3223V13.3086C269.14 12.7253 269.053 12.2285 268.88 11.8184C268.711 11.4082 268.465 11.096 268.142 10.8818C267.818 10.6631 267.424 10.5537 266.959 10.5537C266.494 10.5537 266.1 10.6631 265.776 10.8818C265.453 11.096 265.204 11.4082 265.031 11.8184C264.863 12.2285 264.778 12.7253 264.778 13.3086V13.3223C264.778 13.901 264.863 14.3955 265.031 14.8057C265.204 15.2158 265.453 15.5303 265.776 15.749C266.1 15.9678 266.494 16.0771 266.959 16.0771ZM278.86 17.1299C278.241 17.1299 277.698 16.9727 277.233 16.6582C276.769 16.3438 276.409 15.9017 276.153 15.332C275.898 14.7578 275.771 14.0879 275.771 13.3223V13.3086C275.771 12.5384 275.898 11.8685 276.153 11.2988C276.409 10.7292 276.766 10.2871 277.227 9.97266C277.691 9.6582 278.236 9.50098 278.86 9.50098C279.366 9.50098 279.824 9.61947 280.234 9.85645C280.649 10.0889 280.957 10.401 281.157 10.793H281.267V6.70508H282.456V17H281.267V15.8242H281.157C280.934 16.2344 280.624 16.5557 280.228 16.7881C279.831 17.016 279.375 17.1299 278.86 17.1299ZM279.134 16.0771C279.58 16.0771 279.965 15.9655 280.289 15.7422C280.613 15.5189 280.861 15.2021 281.034 14.792C281.207 14.3773 281.294 13.8874 281.294 13.3223V13.3086C281.294 12.7389 281.207 12.249 281.034 11.8389C280.861 11.4287 280.613 11.112 280.289 10.8887C279.965 10.6654 279.58 10.5537 279.134 10.5537C278.687 10.5537 278.302 10.6654 277.979 10.8887C277.66 11.1074 277.413 11.4219 277.24 11.832C277.072 12.2422 276.987 12.7344 276.987 13.3086V13.3223C276.987 13.8919 277.072 14.3841 277.24 14.7988C277.413 15.209 277.66 15.5257 277.979 15.749C278.302 15.9678 278.687 16.0771 279.134 16.0771ZM287.747 17.1299C287.045 17.1299 286.441 16.9749 285.936 16.665C285.434 16.3551 285.047 15.9176 284.773 15.3525C284.505 14.7829 284.37 14.113 284.37 13.3428V13.3359C284.37 12.5749 284.505 11.9072 284.773 11.333C285.047 10.7588 285.432 10.3099 285.929 9.98633C286.425 9.66276 287.007 9.50098 287.672 9.50098C288.342 9.50098 288.916 9.65592 289.395 9.96582C289.878 10.2757 290.247 10.7087 290.502 11.2646C290.762 11.8161 290.892 12.4587 290.892 13.1924V13.6572H284.985V12.707H290.283L289.695 13.5752V13.1035C289.695 12.5247 289.609 12.0485 289.436 11.6748C289.262 11.3011 289.023 11.0231 288.718 10.8408C288.412 10.654 288.062 10.5605 287.665 10.5605C287.269 10.5605 286.913 10.6585 286.599 10.8545C286.289 11.0459 286.043 11.3307 285.86 11.709C285.678 12.0872 285.587 12.5521 285.587 13.1035V13.5752C285.587 14.0993 285.676 14.5482 285.854 14.9219C286.031 15.291 286.284 15.5758 286.612 15.7764C286.94 15.9723 287.328 16.0703 287.774 16.0703C288.107 16.0703 288.396 16.0247 288.643 15.9336C288.889 15.8424 289.091 15.7262 289.251 15.585C289.41 15.4437 289.522 15.3001 289.586 15.1543L289.613 15.0928H290.803L290.789 15.1475C290.725 15.3981 290.611 15.6419 290.447 15.8789C290.288 16.1113 290.08 16.3232 289.825 16.5146C289.57 16.7015 289.267 16.8519 288.916 16.9658C288.57 17.0752 288.18 17.1299 287.747 17.1299ZM292.806 17V6.70508H293.995V17H292.806ZM302.622 17V8.50293H302.513L300.004 10.3213V9.02246L302.629 7.13574H303.853V17H302.622ZM310.005 17.2324C309.276 17.2324 308.651 17.0228 308.132 16.6035C307.617 16.1842 307.22 15.5895 306.942 14.8193C306.664 14.0446 306.525 13.1286 306.525 12.0713V12.0576C306.525 11.0003 306.664 10.0866 306.942 9.31641C307.22 8.54622 307.617 7.9515 308.132 7.53223C308.651 7.11296 309.276 6.90332 310.005 6.90332C310.734 6.90332 311.358 7.11296 311.878 7.53223C312.397 7.9515 312.796 8.54622 313.074 9.31641C313.357 10.0866 313.498 11.0003 313.498 12.0576V12.0713C313.498 13.1286 313.357 14.0446 313.074 14.8193C312.796 15.5895 312.397 16.1842 311.878 16.6035C311.358 17.0228 310.734 17.2324 310.005 17.2324ZM310.005 16.1592C310.479 16.1592 310.882 15.9928 311.215 15.6602C311.552 15.3275 311.81 14.8558 311.987 14.2451C312.17 13.6344 312.261 12.9098 312.261 12.0713V12.0576C312.261 11.2191 312.17 10.4967 311.987 9.89062C311.81 9.27995 311.552 8.81055 311.215 8.48242C310.882 8.14974 310.479 7.9834 310.005 7.9834C309.535 7.9834 309.132 8.14974 308.795 8.48242C308.462 8.81055 308.207 9.27995 308.029 9.89062C307.852 10.4967 307.763 11.2191 307.763 12.0576V12.0713C307.763 12.9098 307.852 13.6344 308.029 14.2451C308.207 14.8558 308.462 15.3275 308.795 15.6602C309.132 15.9928 309.535 16.1592 310.005 16.1592ZM317.36 12.3242C316.731 12.3242 316.237 12.085 315.877 11.6064C315.521 11.1279 315.344 10.4808 315.344 9.66504V9.6582C315.344 8.84245 315.521 8.19759 315.877 7.72363C316.237 7.24512 316.731 7.00586 317.36 7.00586C317.989 7.00586 318.484 7.24512 318.844 7.72363C319.204 8.19759 319.384 8.84245 319.384 9.6582V9.66504C319.384 10.4808 319.204 11.1279 318.844 11.6064C318.484 12.085 317.989 12.3242 317.36 12.3242ZM317.36 11.5107C317.698 11.5107 317.96 11.349 318.146 11.0254C318.338 10.6973 318.434 10.2438 318.434 9.66504V9.6582C318.434 9.07943 318.338 8.62826 318.146 8.30469C317.96 7.98112 317.698 7.81934 317.36 7.81934C317.023 7.81934 316.761 7.98112 316.574 8.30469C316.387 8.62826 316.294 9.07943 316.294 9.6582V9.66504C316.294 10.2438 316.387 10.6973 316.574 11.0254C316.761 11.349 317.023 11.5107 317.36 11.5107ZM318.099 17H316.991L323.704 7.13574H324.812L318.099 17ZM324.429 17.1299C323.8 17.1299 323.305 16.8906 322.945 16.4121C322.59 15.9336 322.412 15.2865 322.412 14.4707V14.4639C322.412 13.6481 322.59 13.0033 322.945 12.5293C323.305 12.0508 323.8 11.8115 324.429 11.8115C325.058 11.8115 325.552 12.0508 325.912 12.5293C326.272 13.0033 326.452 13.6481 326.452 14.4639V14.4707C326.452 15.2865 326.272 15.9336 325.912 16.4121C325.552 16.8906 325.058 17.1299 324.429 17.1299ZM324.429 16.3164C324.766 16.3164 325.028 16.1546 325.215 15.8311C325.406 15.5029 325.502 15.0495 325.502 14.4707V14.4639C325.502 13.8851 325.406 13.4339 325.215 13.1104C325.028 12.7868 324.766 12.625 324.429 12.625C324.091 12.625 323.829 12.7868 323.643 13.1104C323.456 13.4339 323.362 13.8851 323.362 14.4639V14.4707C323.362 15.0495 323.456 15.5029 323.643 15.8311C323.829 16.1546 324.091 16.3164 324.429 16.3164ZM329.46 17.0684C329.218 17.0684 329.009 16.9818 328.831 16.8086C328.658 16.6309 328.571 16.4212 328.571 16.1797C328.571 15.9336 328.658 15.724 328.831 15.5508C329.009 15.3776 329.218 15.291 329.46 15.291C329.706 15.291 329.916 15.3776 330.089 15.5508C330.262 15.724 330.349 15.9336 330.349 16.1797C330.349 16.4212 330.262 16.6309 330.089 16.8086C329.916 16.9818 329.706 17.0684 329.46 17.0684Z" fill="white"/>
<g id="&#230;&#137;&#139;&#230;&#156;&#186;&#231;&#171;&#175;&#229;&#175;&#188;&#232;&#136;&#170;&#230;&#160;&#143;_2">
<rect width="390" height="136" transform="translate(-25 -104)" fill="white"/>
<g id="Frame 24">
<rect x="-12.5" y="-7.5" width="74" height="31" stroke="#E5E5E0"/>
<g id="Frame">
<path id="Vector" d="M15.0732 9.9048C15.2174 9.90475 15.3587 9.94563 15.4806 10.0227C15.6025 10.0998 15.7 10.2099 15.7618 10.3402C15.8237 10.4705 15.8472 10.6157 15.8298 10.7589C15.8123 10.9021 15.7546 11.0373 15.6633 11.149L14.4633 12.6168V15.0857L13.3334 14.7825V12.1924L14.2698 11.0477H11.589L12.5718 12.1867V14.5779L11.4332 14.272V12.6172L10.1802 11.165C10.0847 11.0545 10.023 10.9189 10.0023 10.7744C9.98171 10.6298 10.003 10.4824 10.0638 10.3496C10.1246 10.2168 10.2222 10.1043 10.3451 10.0255C10.468 9.94661 10.611 9.90472 10.757 9.9048H15.0732ZM8.50709 1.72956L13.1204 3.7787C13.3226 3.86842 13.4943 4.01487 13.6149 4.20028C13.7355 4.38569 13.7997 4.60211 13.7997 4.82327V9.14289H12.6568V5.89908L8.79394 7.61527V13.7562H8.76232V14.1562L8.5067 14.2697C8.36068 14.3346 8.20267 14.3681 8.0429 14.3681C7.88312 14.3681 7.72511 14.3346 7.57909 14.2697L2.96499 12.2214C2.76291 12.1316 2.59122 11.9851 2.47072 11.7997C2.35023 11.6143 2.2861 11.3979 2.28613 11.1768V4.82327C2.2861 4.60215 2.35023 4.38577 2.47072 4.20036C2.59122 4.01495 2.76291 3.86848 2.96499 3.7787L7.57909 1.72994C7.72511 1.66509 7.88312 1.63159 8.0429 1.63159C8.20267 1.63159 8.36068 1.66509 8.5067 1.72994L8.50709 1.72956ZM3.42899 5.84575V11.1772L7.65109 13.0522V7.59203L3.42899 5.84537V5.84575ZM8.0427 2.77489L3.67928 4.71203L8.25451 6.60537L12.4598 4.73603L8.0427 2.77413V2.77489Z" fill="#1A1A1A"/>
</g>
</g>
</g>
</g>
</g>
<defs>
<clipPath id="clip0_0_1">
<rect width="390" height="2575" fill="white" transform="translate(-25 -151)"/>
</clipPath>
<clipPath id="clip1_0_1">
<rect width="390" height="136" fill="white" transform="translate(-25 -104)"/>
</clipPath>
</defs>
</svg>
