<svg width="16" height="16" viewBox="0 0 16 16" fill="none" xmlns="http://www.w3.org/2000/svg">
<path d="M5.13756 5.90477L5.63318 12.9307H10.4873L10.9825 5.90477H12.1273L11.6271 13.0111C11.6067 13.2995 11.4778 13.5695 11.2663 13.7667C11.0548 13.9638 10.7764 14.0735 10.4873 14.0735H5.63318C5.34397 14.0735 5.06553 13.9638 4.85401 13.7665C4.64249 13.5693 4.51362 13.2992 4.49337 13.0107L3.99242 5.90477H5.13756ZM7.62518 6.25867V11.592H6.48232V6.25867H7.62518ZM9.7147 6.25867V11.592H8.57185V6.25867H9.7147ZM2.28613 4.00001H13.7147V5.14286H2.28613V4.00001ZM10.384 2.09525V3.2381H5.81261V2.09525H10.384Z" fill="#808080"/>
</svg>
