<svg width="24" height="24" viewBox="0 0 24 24" fill="none" xmlns="http://www.w3.org/2000/svg">
    <g id="&#230;&#149;&#153;&#231;&#168;&#139;" clip-path="url(#clip0_0_1)">
        <g id="&#229;&#175;&#188;&#232;&#136;&#170;&#230;&#160;&#143;">
            <g id="Group 47">
                <g id="Frame">
                    <path id="Vector"
                        d="M10.9064 3.42859C15.0361 3.42859 18.3836 6.82916 18.3836 11.0246C18.3874 12.6886 17.8479 14.3084 16.847 15.6377L20.5716 19.4206L19.4384 20.5714L15.7436 16.8172C14.4008 17.9809 12.6833 18.621 10.9064 18.62C6.77671 18.62 3.42871 15.22 3.42871 11.0246C3.42871 6.82916 6.77671 3.42859 10.9064 3.42859ZM10.9064 5.05602C7.66128 5.05602 5.031 7.72859 5.031 11.0246C5.031 14.3206 7.66128 16.9926 10.9064 16.9926C14.151 16.9926 16.7813 14.3206 16.7813 11.0246C16.7813 7.72859 14.151 5.05602 10.9064 5.05602Z"
                        fill="#1A1A1A" />
                </g>
            </g>
        </g>
    </g>
    <defs>
        <clipPath id="clip0_0_1">
            <rect width="1920" height="3111" fill="white" transform="translate(-1568 -59)" />
        </clipPath>
    </defs>
</svg>