<svg width="20" height="20" viewBox="0 0 20 20" fill="none" xmlns="http://www.w3.org/2000/svg">
<g id="Frame">
<path id="Vector" d="M1.90867 2.14288C2.40017 2.14289 2.87672 2.31185 3.25845 2.62145C3.64017 2.93104 3.90387 3.36245 4.00534 3.84336L4.3001 5.23812H4.30486L5.26201 9.82145L5.98724 13.3334H14.9653L16.3415 6.66669H5.57629L5.27772 5.23812H16.342C16.5541 5.23812 16.7636 5.28535 16.9552 5.3764C17.1468 5.46745 17.3157 5.60002 17.4497 5.76449C17.5836 5.92897 17.6793 6.12121 17.7297 6.32726C17.7801 6.53331 17.784 6.748 17.7411 6.95574L16.3649 13.6224C16.2983 13.9444 16.1228 14.2336 15.8678 14.4412C15.6129 14.6488 15.2941 14.762 14.9653 14.7619H5.98724C5.65855 14.7619 5.3399 14.6486 5.08504 14.441C4.83018 14.2334 4.6547 13.9443 4.5882 13.6224L3.23582 7.07288L3.22677 7.07479L2.60772 4.13812C2.57386 3.97782 2.48592 3.83404 2.35865 3.73087C2.23138 3.62769 2.07251 3.57141 1.90867 3.57145H0.686768V2.14288H1.90867ZM11.1906 7.61907V9.28574H12.8572V10.7143H11.1906V12.381H9.762V10.7143H8.09534V9.28574H9.762V7.61907H11.1906ZM5.95248 18.0953C6.10883 18.0953 6.26365 18.0645 6.4081 18.0047C6.55256 17.9449 6.68381 17.8572 6.79437 17.7466C6.90494 17.6361 6.99264 17.5048 7.05248 17.3604C7.11231 17.216 7.14311 17.0611 7.14311 16.9048C7.14311 16.7484 7.11231 16.5936 7.05248 16.4492C6.99264 16.3047 6.90494 16.1735 6.79437 16.0629C6.68381 15.9524 6.55256 15.8647 6.4081 15.8049C6.26365 15.7451 6.10883 15.7143 5.95248 15.7143C5.63677 15.7144 5.33401 15.8398 5.11079 16.063C4.88756 16.2863 4.76216 16.5891 4.76216 16.9048C4.76216 17.2205 4.88756 17.5233 5.11079 17.7465C5.33401 17.9698 5.63677 18.0952 5.95248 18.0953ZM14.5239 18.0953C14.6803 18.0953 14.8351 18.0645 14.9795 18.0047C15.124 17.9449 15.2552 17.8572 15.3658 17.7466C15.4764 17.6361 15.5641 17.5048 15.6239 17.3604C15.6837 17.216 15.7145 17.0611 15.7145 16.9048C15.7145 16.7484 15.6837 16.5936 15.6239 16.4492C15.5641 16.3047 15.4764 16.1735 15.3658 16.0629C15.2552 15.9524 15.124 15.8647 14.9795 15.8049C14.8351 15.7451 14.6803 15.7143 14.5239 15.7143C14.2082 15.7144 13.9054 15.8398 13.6822 16.063C13.459 16.2863 13.3336 16.5891 13.3336 16.9048C13.3336 17.2205 13.459 17.5233 13.6822 17.7465C13.9054 17.9698 14.2082 18.0952 14.5239 18.0953Z" fill="#4D4D4D"/>
</g>
</svg>
