<svg width="80" height="80" viewBox="0 0 80 80" fill="none" xmlns="http://www.w3.org/2000/svg">
<g id="Frame">
<path id="Vector" d="M40 7.61914C57.8838 7.61914 72.381 22.1163 72.381 40.0001C72.381 57.8839 57.8838 72.381 40 72.381C22.1162 72.381 7.61905 57.8839 7.61905 40.0001C7.61905 22.1163 22.1162 7.61914 40 7.61914ZM35.4857 28.5715C33.7714 28.5715 32.381 29.962 32.381 31.6763V48.0153C32.3813 48.5725 32.5316 49.1192 32.816 49.5983C33.1004 50.0773 33.5085 50.4711 33.9974 50.7381C34.4863 51.0052 35.0381 51.1358 35.5949 51.1162C36.1517 51.0966 36.6929 50.9275 37.1619 50.6268L50.0019 42.3772C50.4412 42.0949 50.8022 41.7063 51.0514 41.2474C51.3007 40.7885 51.4302 40.2741 51.4279 39.7519C51.4256 39.2297 51.2916 38.7165 51.0384 38.2598C50.7851 37.8031 50.4208 37.4177 49.979 37.1391L37.139 29.0496C36.6435 28.7373 36.0696 28.5715 35.4838 28.5715H35.4857Z" fill="white"/>
</g>
</svg>
