<svg width="16" height="16" viewBox="0 0 16 16" fill="none" xmlns="http://www.w3.org/2000/svg">
<path d="M11.1483 9.37344C10.978 9.28594 10.1296 8.87031 9.97178 8.81406C9.81396 8.75469 9.69834 8.72656 9.58428 8.90156C9.46865 9.075 9.14053 9.46094 9.0374 9.57812C8.9374 9.69375 8.83584 9.70781 8.66553 9.62187C7.65303 9.11562 6.98896 8.71875 6.32178 7.57344C6.14521 7.26875 6.49834 7.29063 6.82803 6.63281C6.88428 6.51719 6.85615 6.41875 6.8124 6.33125C6.76865 6.24375 6.4249 5.39687 6.28115 5.05156C6.14209 4.71562 5.99834 4.7625 5.89365 4.75625C5.79365 4.75 5.67959 4.75 5.56396 4.75C5.44834 4.75 5.2624 4.79375 5.10459 4.96406C4.94678 5.1375 4.50146 5.55469 4.50146 6.40156C4.50146 7.24844 5.11865 8.06875 5.20303 8.18437C5.29053 8.3 6.41709 10.0375 8.14678 10.7859C9.24053 11.2578 9.66865 11.2984 10.2155 11.2172C10.5483 11.1672 11.2343 10.8016 11.3765 10.3969C11.5187 9.99375 11.5187 9.64844 11.4765 9.57656C11.4343 9.5 11.3187 9.45625 11.1483 9.37344Z" fill="#1A1A1A"/>
<path d="M14.4563 5.2875C14.1032 4.44844 13.597 3.69531 12.9517 3.04844C12.3063 2.40313 11.5532 1.89531 10.7126 1.54375C9.85321 1.18281 8.94071 1 8.00009 1H7.96884C7.02196 1.00469 6.10478 1.19219 5.24228 1.56094C4.40946 1.91719 3.66259 2.42344 3.02353 3.06875C2.38446 3.71406 1.8829 4.46406 1.53603 5.3C1.17665 6.16563 0.995401 7.08594 1.00009 8.03281C1.00478 9.11719 1.26415 10.1938 1.75009 11.1562V13.5312C1.75009 13.9281 2.07196 14.25 2.46884 14.25H4.8454C5.8079 14.7359 6.88446 14.9953 7.96884 15H8.00165C8.93759 15 9.8454 14.8188 10.7001 14.4641C11.536 14.1156 12.2876 13.6156 12.9313 12.9766C13.5767 12.3375 14.0845 11.5906 14.4392 10.7578C14.8079 9.89531 14.9954 8.97813 15.0001 8.03125C15.0048 7.07969 14.8204 6.15625 14.4563 5.2875ZM12.0954 12.1313C11.0001 13.2156 9.54696 13.8125 8.00009 13.8125H7.97353C7.03134 13.8078 6.0954 13.5734 5.26884 13.1328L5.13759 13.0625H2.93759V10.8625L2.86728 10.7312C2.42665 9.90469 2.19228 8.96875 2.18759 8.02656C2.18134 6.46875 2.77665 5.00625 3.86884 3.90469C4.95946 2.80312 6.41728 2.19375 7.97509 2.1875H8.00165C8.7829 2.1875 9.54071 2.33906 10.2548 2.63906C10.9517 2.93125 11.5767 3.35156 12.1142 3.88906C12.6501 4.425 13.072 5.05156 13.3642 5.74844C13.6673 6.47031 13.8188 7.23594 13.8157 8.02656C13.8063 9.58281 13.1954 11.0406 12.0954 12.1313Z" fill="#1A1A1A"/>
</svg>
